<svg xmlns="http://www.w3.org/2000/svg" width="199.615" height="35" viewBox="0 0 199.615 35">
  <g id="グループ_1039" data-name="グループ 1039" transform="translate(-31.491 -22.5)">
    <g id="グループ_1025" data-name="グループ 1025">
      <g id="グループ_1022" data-name="グループ 1022">
        <g id="グループ_1021" data-name="グループ 1021">
          <path id="パス_4133" data-name="パス 4133" d="M229.13,48.088c-.058.528-.192.809-.913.828-.5.009-1.067.018-1.606.018-2.028,0-2.307-.018-2.307-.5,0-.1.019-.3.019-.346H222.55a.181.181,0,0,1-.193-.181.184.184,0,0,1,.193-.191h1.822c.067-.473.2-.764.942-.782.451-.018.99-.018,1.538-.018s1.124,0,1.643.018.7.227.7.5v.046c0,.063-.01.145-.019.236h1.691a.186.186,0,1,1,0,.372Zm-5.979,5.235c-.193,0-.442-.057-.442-.176s-.323-.288-.15-.282a6.952,6.952,0,0,0,3-.578.223.223,0,0,1,.1-.027.235.235,0,0,1,.222.236.21.21,0,0,1-.135.191A7.973,7.973,0,0,1,223.151,53.323Zm6.738-6.4c0-.363-.288-.463-.682-.472-.577-.009-1.317-.009-2.067-.009-1.029,0-2.1,0-2.836.009-.509.009-.711.218-.721.481v.355a.242.242,0,0,1-.259.227c-.231,0-.269-.127-.269-.473,0-.4.048-.972,1.028-.981.8-.009,1.605-.009,2.4-.009l-.009-.682c0-.154.139-.135.283-.135s.265-.019.265.135v.682c.779,0,1.557,0,2.336.009.615.009,1.038.263,1.047.736v.5a.242.242,0,0,1-.259.236.238.238,0,0,1-.26-.227Zm-.792,5.262c-.558.009-1.813.018-2.371.018s-1.774-.009-2.264-.018c-.634-.018-.9-.3-.923-.691-.009-.2-.019-.436-.019-.663,0-.291.01-.572.019-.8.01-.345.289-.663.9-.672.394-.009,1.476-.009,1.9-.009.673,0,2.053.009,2.8.018.539.009.827.3.846.618.019.227.029.509.029.791,0,.254-.01.5-.029.717C229.962,51.869,229.674,52.169,229.1,52.187Zm-5.106-1.7v.527h5.539v-.527Zm5.519-.355c-.019-.281-.163-.436-.557-.445-.538-.009-1.9-.018-2.563-.018-.4,0-1.476,0-1.822.009-.394.009-.548.191-.558.454l-.009.073h5.509Zm0,1.173H224l.009.1c.01.328.221.446.577.455.433.009,1.64.018,2.168.018s1.756-.009,2.208-.018c.336-.009.528-.145.547-.445Zm-3.081-3.263h-1.634c-.01.1-.029.2-.029.273v.027c0,.255.057.282,1.595.282Zm.1-.827c-.442,0-.865,0-1.182.009-.394.009-.461.155-.519.537h1.634Zm.375.827-.076.582c.442,0,.884-.009,1.249-.019.481-.018.51-.154.558-.563Zm1.769-.281a2.192,2.192,0,0,0,.019-.255c0-.182-.086-.273-.413-.282-.365-.009-.807-.009-1.269-.009l-.067.546Zm1.6,5.488a7.277,7.277,0,0,1-2.577-.618.2.2,0,0,1-.134-.181.229.229,0,0,1,.231-.228.274.274,0,0,1,.106.028,7.91,7.91,0,0,0,2.931.52c.174,0-.131.24-.131.358S230.476,53.25,230.274,53.25Z" fill="#e7380d"/>
        </g>
        <path id="パス_4134" data-name="パス 4134" d="M229.91,53.643h-6.462a1.2,1.2,0,0,1-1.2-1.2V46.309a1.2,1.2,0,0,1,1.2-1.2h6.462a1.2,1.2,0,0,1,1.2,1.2v6.138A1.2,1.2,0,0,1,229.91,53.643Zm-6.462-8.218a.886.886,0,0,0-.885.884v6.138a.886.886,0,0,0,.885.884h6.462a.886.886,0,0,0,.885-.884V46.309a.886.886,0,0,0-.885-.884Z" fill="#e7380d"/>
      </g>
      <g id="グループ_1023" data-name="グループ 1023">
        <path id="パス_4135" data-name="パス 4135" d="M49.836,42.85a.594.594,0,1,1-.593-.6A.593.593,0,0,1,49.836,42.85Z" fill="#fff"/>
        <path id="パス_4136" data-name="パス 4136" d="M49.836,41.315a.594.594,0,1,1-.593-.6A.6.6,0,0,1,49.836,41.315Z" fill="#fff"/>
        <path id="パス_4137" data-name="パス 4137" d="M51.138,42.216a.6.6,0,1,1-.6-.594A.6.6,0,0,1,51.138,42.216Z" fill="#fff"/>
        <path id="パス_4138" data-name="パス 4138" d="M51.09,43.7a.6.6,0,1,1-.594-.6A.594.594,0,0,1,51.09,43.7Z" fill="#fff"/>
        <path id="パス_4139" data-name="パス 4139" d="M48.632,42.061a.594.594,0,1,1-.594-.6A.593.593,0,0,1,48.632,42.061Z" fill="#fff"/>
        <path id="パス_4140" data-name="パス 4140" d="M62.545,43.687a11.087,11.087,0,0,0-4.34-1.447,8.082,8.082,0,0,0-.823-3.169,11.044,11.044,0,0,0,2.6-4.1A13.621,13.621,0,0,0,58.3,22.5a13.609,13.609,0,0,0-9.344,8.43,11.283,11.283,0,0,0-.7,3.511,11.543,11.543,0,0,0-1.381.367l0-.007-.123.05h0c-.032.011-.064.022-.1.035l-.342.137.008.011a8.424,8.424,0,0,0-4.941,8.26,11.164,11.164,0,0,0-3.453,2.182c-3.247,2.977-4.5,7.489-4.237,11.848,4.377.577,8.923-.22,12.17-3.195a11.175,11.175,0,0,0,2.415-3.143,8.423,8.423,0,0,0,1.456.131l.059,0,.06,0a8.373,8.373,0,0,0,3.172-.621,11.026,11.026,0,0,0,3.654,3.358,13.592,13.592,0,0,0,12.571.482A13.6,13.6,0,0,0,62.545,43.687Zm-11.576.649c-.041.029-.077.063-.117.094a.589.589,0,0,0-.313-.092.6.6,0,0,0-.594.594.579.579,0,0,0,.055.246c-.069.068-.142.132-.208.2-.165-.177-.339-.346-.52-.508a.594.594,0,1,0-.669-.589.374.374,0,0,0,.005.047c-.168-.122-.343-.231-.518-.338a.593.593,0,1,0-.528-1.06,8.226,8.226,0,0,0,.327-.833h0a8.356,8.356,0,0,0,.229-.893.6.6,0,0,0,.513-.585,8.161,8.161,0,0,0,1.162.091c.052,0,.1-.006.154-.007l0,.018a.6.6,0,0,0,1.193,0,.625.625,0,0,0-.011-.116c.076-.012.154-.017.23-.03.018.141.048.281.074.422a.592.592,0,0,0,.219.923c.017.059.029.119.048.177.025.077.058.149.085.225a.591.591,0,1,0,.448,1.03c.032.061.058.126.092.187A8.17,8.17,0,0,0,50.969,44.336Zm-3.7-.8v.008l0,0ZM51.3,40.005a8.341,8.341,0,0,1-1.509.141,7.557,7.557,0,0,1-1.5-.144c.011-.217.012-.44,0-.665a8.41,8.41,0,0,0-.37-2.312A7.124,7.124,0,0,0,47.2,35.3a8.988,8.988,0,0,1,2.755-.473,7.872,7.872,0,0,1,2.451.468l.526.216c.223.1.436.208.646.323.067.038.134.074.2.114s.115.074.173.111a9.984,9.984,0,0,1,1.511,1.232c.061.064.121.127.181.192a7.251,7.251,0,0,1-3.775,2.4Zm-8.989.279a7.85,7.85,0,0,1,4.335-4.776,7.85,7.85,0,0,1,.851,2.114,9.287,9.287,0,0,1,.2,1.218,7.845,7.845,0,0,1-.349,3.085h0a7.887,7.887,0,0,1-.614,1.392,8.462,8.462,0,0,0-4.8-.372A7.853,7.853,0,0,1,42.313,40.284Zm4.659,3.751a7.7,7.7,0,0,1,1.31.759h0a7.7,7.7,0,0,1,1.135,1.018,8.465,8.465,0,0,0-1.833,4.432,7.528,7.528,0,0,1-4.246-3.07l-.308-.482a7.961,7.961,0,0,1-1.024-3.184,7.91,7.91,0,0,1,4.424.308Zm4.474,6.331a8.151,8.151,0,0,1-1.652.185,8.059,8.059,0,0,1-1.657-.185,7.905,7.905,0,0,1,1.655-4.1l.376-.45a7.374,7.374,0,0,1,2.446-1.778,8.406,8.406,0,0,0,3.633,3.139A7.516,7.516,0,0,1,52,50.243Zm6.132-6.859a7.969,7.969,0,0,1-1.023,3.185,7.842,7.842,0,0,1-3.4-2.877l-.307-.5a7.57,7.57,0,0,1-.933-2.858,7.784,7.784,0,0,0,4.1-2.541,7.755,7.755,0,0,1,1.63,5.027Z" fill="#fff"/>
        <path id="パス_4141" data-name="パス 4141" d="M44.53,31.334A6.593,6.593,0,0,0,40.939,26.2,6.579,6.579,0,0,0,38.6,29.98a4.279,4.279,0,0,0-3.43-1,.277.277,0,0,0-.12.021,4.293,4.293,0,0,0-.956,8.178,6.569,6.569,0,0,0-2.488,3.8,6.592,6.592,0,0,0,6.17,1.049,5.732,5.732,0,0,0,3.642-4.52A7.038,7.038,0,0,0,38.93,36.17a4.243,4.243,0,0,0,.817-1.268,7.048,7.048,0,0,0,2.259,1.664A5.726,5.726,0,0,0,44.53,31.334ZM33.824,30.06a4.367,4.367,0,0,0-.907,2.394,2.234,2.234,0,0,0-.807.165A3.734,3.734,0,0,1,33.824,30.06Zm-1.28,5.018a3.717,3.717,0,0,1-.485-1.8,1.71,1.71,0,0,1,.862-.264,4.257,4.257,0,0,0,.541,1.827,4.318,4.318,0,0,0,2.883,2.079A3.738,3.738,0,0,1,32.544,35.078Zm5.2,1.333a3.735,3.735,0,0,1-2.505-6.871,3.7,3.7,0,0,1,.546-.044,3.752,3.752,0,0,1,1,.136,3.7,3.7,0,0,1,2.252,1.755h0a3.725,3.725,0,0,1-1.292,5.023Z" fill="#fff"/>
      </g>
      <g id="グループ_1024" data-name="グループ 1024">
        <path id="パス_4142" data-name="パス 4142" d="M83.009,41.051,81.96,43.039a17.466,17.466,0,0,1-1.536-3.61V55.757H78.5v-15.3a32.2,32.2,0,0,1-2.658,7.684l-.854-3.312A30.8,30.8,0,0,0,78.351,34H75.375V31.546H78.5V25.153h1.927v6.393H82.74v2.02a23.413,23.413,0,0,0,3.317-8.413l1.975.265c-.17.7-.292,1.358-.634,2.551H97.934v2.45H86.569c-.244.6-.634,1.59-1.414,3.114H96.69c0,1.027-.073,6.127-.073,7.253h1.317v2.286H96.592c-.024,2.318-.048,3.08-.146,5.6H97.5v2.318h-1.22c-.317,3.18-.561,4.77-2.9,4.77H90.447l-.391-2.451,2.976.033c.634,0,.975-.066,1.292-2.352h-9c-.195,1.193-.317,1.69-.487,2.385l-1.9-.53a59.742,59.742,0,0,0,1.464-9.77h-1.39Zm1.585-.265c.219-3.179.268-5.531.292-6.756-.487.861-.853,1.457-1.219,2.02l-1.244-1.987L82.448,34H80.424v1.159a21.546,21.546,0,0,0,2.609,5.63Zm4.463,7.883c.1-.927.317-2.782.487-5.6H86.228c-.171,1.888-.342,3.742-.561,5.6Zm.634-7.883c.1-2.153.1-2.815.146-4.968H86.691c-.073,1.689-.171,3.279-.293,4.968Zm1.634,2.286c-.171,2.948-.342,4.67-.439,5.6h3.633c.1-1.391.1-1.821.171-5.6Zm3.414-2.286c0-.761.073-4.272.073-4.968H91.593c0,1.623-.073,3.379-.147,4.968Z" fill="#fff"/>
        <path id="パス_4143" data-name="パス 4143" d="M119.271,36.713v2.55h-4.9c-.414,7.121-1.683,13.414-9.389,15.765l-.878-2.351c7.292-1.789,7.926-7.817,8.219-13.414h-5.268a14.463,14.463,0,0,1-3.609,5.664l-1.512-1.789c2.975-2.815,4.1-5.829,4.682-11.493l2.122.364a36.936,36.936,0,0,1-.9,4.7Z" fill="#fff"/>
        <path id="パス_4144" data-name="パス 4144" d="M146.168,42.078H127.829v2.087h17.632c-.049,1.987-.195,7.551-1.049,9.87a2.558,2.558,0,0,1-2.365,1.788h-3.121l-.366-2.649,2.829.033c1,0,1.877,0,1.975-6.889H131.926v4.736h4.146V47.543H138v5.8H125.9v1.59h-1.951V47.543H125.9v3.511h4.121V46.318h-4.17V27.472h7.072a14.562,14.562,0,0,0,.586-2.418l2.17.133c-.171.728-.463,1.722-.658,2.285h8.364V38H127.829v1.954h18.339Zm-4.755-12.487H127.829v2.253h13.584Zm0,4.075H127.829v2.318h13.584Z" fill="#fff"/>
        <path id="パス_4145" data-name="パス 4145" d="M165.9,55.062a75.782,75.782,0,0,0-10.072-9.44c-3.463-2.749-4.438-3.544-4.438-5.365,0-1.458.707-2.418,2.755-4.6,6.414-6.823,7.121-7.585,8.951-10.168l2.194,1.921c-2.853,3.643-3.511,4.272-9.34,10.035a14.045,14.045,0,0,0-1.634,1.756,1.4,1.4,0,0,0-.317.861c0,.563,0,.8,1.78,2.086a96.436,96.436,0,0,1,12,10.5Z" fill="#fff"/>
        <path id="パス_4146" data-name="パス 4146" d="M176.8,31.016c-.61,3.146-.708,4.239-.732,9.406a12.639,12.639,0,0,1,8.974-4.008c4,0,6.634,3.279,6.634,8.148,0,9.87-8.585,9.87-11.608,9.87a25.923,25.923,0,0,1-5.756-.6l-.1-2.815a23.212,23.212,0,0,0,5.877.662c3.926,0,6.219-.5,8-2.782a7.306,7.306,0,0,0,1.317-4.339c0-3.113-1.707-5.432-4.683-5.432a10.537,10.537,0,0,0-8.559,4.67,6.227,6.227,0,0,0-.074.663l-2.17-.067c.024-1.126.049-6.292.073-7.054a35.971,35.971,0,0,1,.658-6.79Zm11.047-.034c-2.122-1.059-4.268-1.92-10.17-2.252l.366-2.815a26.546,26.546,0,0,1,10.316,2.12Z" fill="#fff"/>
        <path id="パス_4147" data-name="パス 4147" d="M196.621,51.518c.731-1.988,2.243-6.1,2.365-15.137l2.073.265a56.985,56.985,0,0,1-2.316,16.229ZM211.3,32.672a4.736,4.736,0,0,0-3.926,4.67,6.259,6.259,0,0,0,1.316,3.544c1.366,2.053,2.659,4.007,2.659,7.485,0,5.3-3.39,6.061-4.634,6.061a9.709,9.709,0,0,1-5.048-1.59l.415-2.782c2.268,1.226,3.316,1.524,4.365,1.524.8,0,2.585-.166,2.585-3.544a9.306,9.306,0,0,0-1.878-5.432,8.87,8.87,0,0,1-1.805-5.2,6.7,6.7,0,0,1,3.732-6.227,16.863,16.863,0,0,0-8-2.384l.512-2.617a19.387,19.387,0,0,1,10.56,3.61Zm2.8-.894a25.544,25.544,0,0,0-1.658-4.9l1.536-.895a23.368,23.368,0,0,1,1.732,4.836Zm1.756,20.766a63.553,63.553,0,0,0-2.536-16.063l2-.795a72.617,72.617,0,0,1,2.926,16.229Zm1.268-22.025A21.76,21.76,0,0,0,215.4,25.75l1.512-.862a18.746,18.746,0,0,1,1.829,4.67Z" fill="#fff"/>
      </g>
    </g>
  </g>
</svg>
