<svg xmlns="http://www.w3.org/2000/svg" width="55" height="55" viewBox="0 0 55 55">
  <g id="グループ_1043" data-name="グループ 1043" transform="translate(-1375.154 -2604.245)">
    <g id="グループ_1007" data-name="グループ 1007">
      <g id="グループ_1006" data-name="グループ 1006">
        <circle id="楕円形_56" data-name="楕円形 56" cx="27.5" cy="27.5" r="27.5" transform="translate(1375.154 2604.245)" fill="#fff"/>
        <g id="グループ_1004" data-name="グループ 1004">
          <path id="パス_4080" data-name="パス 4080" d="M1394.211,2641.015a.337.337,0,0,1-.2.008.184.184,0,0,1-.1-.085.27.27,0,0,1-.033-.132.8.8,0,0,1,.011-.141.877.877,0,0,1,.038-.137.779.779,0,0,1,.072-.145.469.469,0,0,1,.106-.116.368.368,0,0,1,.16-.064c.34-.045.67-.079.992-.1s.611-.04.869-.051c.3-.017.58-.026.854-.026.058,0,.117,0,.177,0s.118,0,.177,0a.67.67,0,0,1,.161-.013.9.9,0,0,1,.1.013c.214.005.435.014.664.025l.649.039c.24.014.478.032.714.055a.26.26,0,0,1,.011.171c-.007.034-.015.068-.022.1a.188.188,0,0,1-.055.094.5.5,0,0,1-.083.081.53.53,0,0,1-.117.064q-.377-.009-.725-.013t-.615-.005h-.6q-.145.394-.355.97c-.14.385-.283.789-.426,1.213s-.281.846-.41,1.265-.231.795-.305,1.131-.148.644-.222.957c-.029.131-.06.268-.094.41s-.063.282-.088.419-.05.267-.072.393-.041.239-.056.341a2.675,2.675,0,0,1-.332.107c-.1.026-.2.044-.277.056a1.524,1.524,0,0,1-.266.025.662.662,0,0,1-.327-.047c-.041-.031-.046-.092-.016-.183s.088-.3.2-.65q.066-.222.172-.559t.249-.82q.144-.483.343-1.128t.455-1.482l.742-2.375c-.222.023-.44.049-.654.077s-.415.059-.6.09-.358.061-.509.09Z" fill="#5d3e3e"/>
          <path id="パス_4081" data-name="パス 4081" d="M1405.056,2643.492a5.661,5.661,0,0,1-.222,1.081,6.952,6.952,0,0,1-.415,1.046,5.839,5.839,0,0,1-.582.944,4.285,4.285,0,0,1-.737.765,3.458,3.458,0,0,1-.864.512,2.235,2.235,0,0,1-1.263.159,1.629,1.629,0,0,1-.437-.137,2,2,0,0,1-.471-.312,1.772,1.772,0,0,1-.415-.551,2.769,2.769,0,0,1-.255-.859,4.893,4.893,0,0,1,0-1.238,7.218,7.218,0,0,1,1.5-3.682,4.658,4.658,0,0,1,1.113-1.03,1.991,1.991,0,0,1,1.019-.363.683.683,0,0,1,.294.056.491.491,0,0,1,.183.141,1.468,1.468,0,0,1,.177-.026c.066-.005.14-.008.222-.008a.773.773,0,0,1,.57.256,1.921,1.921,0,0,1,.41.718,4.452,4.452,0,0,1,.211,1.106A7.527,7.527,0,0,1,1405.056,2643.492Zm-3.745,4.041a1.484,1.484,0,0,0,.887-.342,3.7,3.7,0,0,0,.841-.927,6.251,6.251,0,0,0,.665-1.362,7.357,7.357,0,0,0,.377-1.649c.015-.154.026-.33.033-.53s.007-.4,0-.606-.024-.409-.05-.611a3.65,3.65,0,0,0-.1-.534,1.307,1.307,0,0,0-.166-.376.285.285,0,0,0-.233-.145.892.892,0,0,0-.288.069,1.477,1.477,0,0,0-.282.166,1.5,1.5,0,0,0-.316.32.108.108,0,0,1-.05-.051.569.569,0,0,0-.039-.068.252.252,0,0,1-.033-.077.092.092,0,0,1-.022-.064.459.459,0,0,0-.011-.09,5.467,5.467,0,0,0-.526.534,5.664,5.664,0,0,0-.61.859,6.92,6.92,0,0,0-.554,1.208,7.073,7.073,0,0,0-.349,1.585,6.811,6.811,0,0,0-.044,1.307,2.83,2.83,0,0,0,.172.829.913.913,0,0,0,.315.431A.7.7,0,0,0,1401.311,2647.533Z" fill="#5d3e3e"/>
          <path id="パス_4082" data-name="パス 4082" d="M1406.03,2647.584c.03-.017.076-.045.139-.085a1.015,1.015,0,0,0,.221-.222,2.986,2.986,0,0,0,.283-.47,5.792,5.792,0,0,0,.321-.837c.059-.188.136-.427.233-.718s.2-.6.315-.931.231-.671.349-1.021.233-.683.344-1,.21-.6.3-.859.158-.455.21-.6a3.9,3.9,0,0,0-.41.231q-.177.111-.376.252c-.133.094-.263.192-.388.294a.79.79,0,0,1-.222-.2.707.707,0,0,1-.077-.112.569.569,0,0,1-.067-.264c0-.091.093-.185.277-.282q.144-.078.438-.222a5.5,5.5,0,0,1,.726-.287,7.463,7.463,0,0,1,1.008-.243,7.318,7.318,0,0,1,1.274-.1,2.528,2.528,0,0,1,1.124.214,1.776,1.776,0,0,1,.654.521,1.622,1.622,0,0,1,.294.649,1.908,1.908,0,0,1,.033.6,2.532,2.532,0,0,1-.4,1,3.709,3.709,0,0,1-.92.961,5.533,5.533,0,0,1-1.429.747,6.348,6.348,0,0,1-1.927.351q-.09.324-.178.666c-.059.228-.122.451-.188.671s-.135.424-.2.615a3.821,3.821,0,0,1-.216.491.976.976,0,0,1-.288.354.954.954,0,0,1-.565.133.9.9,0,0,1-.371-.077A1.136,1.136,0,0,1,1406.03,2647.584Zm2.626-3.9c-.022.091-.05.209-.083.354s-.072.309-.117.491a5.342,5.342,0,0,0,.665-.123,4.8,4.8,0,0,0,.731-.244,4.929,4.929,0,0,0,.715-.372,3.671,3.671,0,0,0,.637-.5,2.71,2.71,0,0,0,.482-.65,2.313,2.313,0,0,0,.249-.807,1.4,1.4,0,0,0-.061-.713,1.11,1.11,0,0,0-.338-.462,1.338,1.338,0,0,0-.51-.247,2.315,2.315,0,0,0-.575-.073,2.468,2.468,0,0,0-.543.06,4.586,4.586,0,0,0-.532.154.224.224,0,0,1,.077.042.3.3,0,0,1,.1.145q-.266.829-.437,1.385c-.115.37-.2.672-.272.905C1408.763,2643.3,1408.7,2643.524,1408.656,2643.689Z" fill="#5d3e3e"/>
        </g>
        <g id="グループ_1005" data-name="グループ 1005">
          <path id="パス_4083" data-name="パス 4083" d="M1403.349,2624.619a.339.339,0,1,1-.339-.34A.339.339,0,0,1,1403.349,2624.619Z" fill="#5d3e3e"/>
          <path id="パス_4084" data-name="パス 4084" d="M1403.349,2623.743a.339.339,0,1,1-.339-.341A.34.34,0,0,1,1403.349,2623.743Z" fill="#5d3e3e"/>
          <path id="パス_4085" data-name="パス 4085" d="M1404.093,2624.257a.341.341,0,1,1-.342-.339A.342.342,0,0,1,1404.093,2624.257Z" fill="#5d3e3e"/>
          <path id="パス_4086" data-name="パス 4086" d="M1404.065,2625.106a.34.34,0,1,1-.339-.341A.34.34,0,0,1,1404.065,2625.106Z" fill="#5d3e3e"/>
          <path id="パス_4087" data-name="パス 4087" d="M1402.661,2624.169a.339.339,0,0,1-.679,0,.339.339,0,1,1,.679,0Z" fill="#5d3e3e"/>
          <path id="パス_4088" data-name="パス 4088" d="M1410.611,2625.1a6.333,6.333,0,0,0-2.48-.827,4.806,4.806,0,0,0-.227-1.218,4.884,4.884,0,0,0-.243-.593,6.317,6.317,0,0,0,1.487-2.341,4.066,4.066,0,1,0-6.3-2.311,6.461,6.461,0,0,0-.4,2.006,6.577,6.577,0,0,0-.789.211l0,0-.071.029h0l-.055.02-.195.079,0,.006a4.81,4.81,0,0,0-2.823,4.72,6.388,6.388,0,0,0-1.974,1.247,8.4,8.4,0,0,0-2.421,6.77,8.5,8.5,0,0,0,6.955-1.826,6.4,6.4,0,0,0,1.38-1.795,4.915,4.915,0,0,0,.832.074h.067a4.785,4.785,0,0,0,1.813-.354,6.3,6.3,0,0,0,2.088,1.918,4.064,4.064,0,1,0,3.353-5.81Zm-6.615.371c-.023.016-.043.036-.066.053a.338.338,0,0,0-.518.287.33.33,0,0,0,.031.141c-.04.039-.081.075-.119.116-.094-.1-.194-.2-.3-.291a.339.339,0,1,0-.383-.336.255.255,0,0,0,0,.027c-.1-.069-.195-.132-.3-.193a.339.339,0,1,0-.3-.606,4.888,4.888,0,0,0,.186-.476h0a4.646,4.646,0,0,0,.132-.51.341.341,0,0,0,.293-.334,4.783,4.783,0,0,0,.664.051c.029,0,.058,0,.088,0v.011a.341.341,0,0,0,.681,0,.384.384,0,0,0-.006-.067c.043-.006.088-.009.131-.017.01.081.028.161.042.241a.343.343,0,0,0-.078.217.339.339,0,0,0,.2.311c.011.034.017.068.028.1s.033.085.049.129a.337.337,0,0,0,.033.673.341.341,0,0,0,.223-.085c.018.035.033.072.052.107A4.7,4.7,0,0,0,1404,2625.469Zm-2.115-.458v.005h0Zm2.306-2.017a4.753,4.753,0,0,1-.862.08,4.319,4.319,0,0,1-.857-.082c.007-.124.007-.251,0-.38a4.785,4.785,0,0,0-.212-1.321,4.043,4.043,0,0,0-.415-.987,5.093,5.093,0,0,1,1.574-.27,4.492,4.492,0,0,1,1.4.267l.3.123c.127.056.248.119.369.185.038.021.076.042.113.065s.066.042.1.063a5.787,5.787,0,0,1,.863.7l.1.11a4.146,4.146,0,0,1-2.157,1.37Zm-5.137.16a1.851,1.851,0,1,1,2.964-1.522,5.306,5.306,0,0,1,.114.7,4.5,4.5,0,0,1-.2,1.763h0a4.453,4.453,0,0,1-.35.8,4.827,4.827,0,0,0-2.741-.213A4.494,4.494,0,0,1,1399.05,2623.154Zm2.662,2.143a4.356,4.356,0,0,1,.749.434h0a4.39,4.39,0,0,1,.648.581,4.831,4.831,0,0,0-1.047,2.533,4.313,4.313,0,0,1-2.427-1.755l-.176-.275a1.37,1.37,0,1,1,1.943-1.643Zm2.557,3.617a4.538,4.538,0,0,1-.944.106,4.63,4.63,0,0,1-.947-.1,4.516,4.516,0,0,1,.946-2.346l.215-.257a4.288,4.288,0,0,1,.648-.581,4.345,4.345,0,0,1,.75-.435,4.8,4.8,0,0,0,2.076,1.794,4.386,4.386,0,0,1-1.048,1.089,4.338,4.338,0,0,1-1.379.665Zm3.5-3.919a4.547,4.547,0,0,1-.585,1.82,4.485,4.485,0,0,1-1.941-1.644l-.176-.285a4.325,4.325,0,0,1-.533-1.633,4.45,4.45,0,0,0,2.341-1.452,4.437,4.437,0,0,1,.931,2.873Z" fill="#5d3e3e"/>
          <path id="パス_4089" data-name="パス 4089" d="M1400.317,2618.039a1.892,1.892,0,1,0-3.39-.774,2.443,2.443,0,0,0-1.96-.573.166.166,0,0,0-.069.012,2.454,2.454,0,0,0-.546,4.674,1.9,1.9,0,1,0,2.1,2.771,3.275,3.275,0,0,0,2.081-2.583,4,4,0,0,0-1.42-.763,2.448,2.448,0,0,0,.467-.725,4.02,4.02,0,0,0,1.291.951A3.273,3.273,0,0,0,1400.317,2618.039Zm-6.117-.728a2.5,2.5,0,0,0-.519,1.368,1.284,1.284,0,0,0-.461.095A2.13,2.13,0,0,1,1394.2,2617.311Zm-.732,2.867a2.112,2.112,0,0,1-.277-1.027.969.969,0,0,1,.492-.151,2.426,2.426,0,0,0,1.957,2.231A2.134,2.134,0,0,1,1393.468,2620.178Zm2.969.763a2.135,2.135,0,0,1-1.431-3.927,2.18,2.18,0,0,1,.312-.025,2.138,2.138,0,0,1,.57.077,2.113,2.113,0,0,1,1.287,1h0a2.131,2.131,0,0,1-.739,2.871Z" fill="#5d3e3e"/>
        </g>
      </g>
    </g>
  </g>
</svg>
