<svg xmlns="http://www.w3.org/2000/svg" width="394.671" height="186.191" viewBox="0 0 394.671 186.191">
  <path id="パス_3939" data-name="パス 3939" d="M571.219,379.142a1.719,1.719,0,0,1-.642-.137,9.146,9.146,0,0,1-5.586-5.144,16.906,16.906,0,0,1-.868-8.391,49.607,49.607,0,0,1,2.608-10.606,121.154,121.154,0,0,1,4.955-11.892c1.921-4.025,4.064-8.147,6.371-12.249,2.3-4.084,4.6-8.015,6.856-11.682q1.809-2.947,3.516-5.641-.444.582-.9,1.171c-2.889,3.766-6.005,7.73-9.261,11.781s-6.667,8.109-10.147,12.067c-3.464,3.938-6.953,7.722-10.369,11.247a128.119,128.119,0,0,1-10.018,9.357,62.245,62.245,0,0,1-9.137,6.422,16.545,16.545,0,0,1-7.838,2.442c-3,0-5.161-.909-6.425-2.7a11.079,11.079,0,0,1-1.659-6.942,37.02,37.02,0,0,1,1.894-9.6c1.133-3.547,2.56-7.308,4.24-11.177s3.562-7.784,5.606-11.653c2.028-3.84,4.019-7.528,5.919-10.96s3.656-6.505,5.212-9.108q2.349-3.936,3.553-6.013a4.769,4.769,0,0,1,1.822-1.969,2.886,2.886,0,0,1,1.277-.342,1.909,1.909,0,0,1,.547.078,1.636,1.636,0,0,1,1.144,1.434,3.379,3.379,0,0,1-.517,2.14c-.731,1.315-1.916,3.278-3.523,5.835s-3.4,5.484-5.357,8.747c-1.968,3.279-4.046,6.847-6.177,10.605s-4.141,7.572-5.947,11.292-3.38,7.347-4.683,10.782a37.678,37.678,0,0,0-2.367,9.026,9.636,9.636,0,0,0,.892,5.977c.822,1.391,2.382,2.067,4.768,2.067a14.956,14.956,0,0,0,7.155-2.317,66.852,66.852,0,0,0,8.992-6.339,121.857,121.857,0,0,0,10.014-9.307c3.437-3.545,6.928-7.331,10.378-11.252s6.877-7.976,10.164-12.022,6.426-8.015,9.294-11.755,5.48-7.233,7.762-10.385,4.171-5.811,5.63-7.925a10.294,10.294,0,0,1,2.306-2.582,3.063,3.063,0,0,1,1.674-.689,1.38,1.38,0,0,1,.3.031c.326.073,1.066.379.982,1.654a5.4,5.4,0,0,1-1.045,2.474c-1.539,2.418-3.475,5.387-5.748,8.813-2.3,3.474-4.788,7.266-7.386,11.27-2.609,4.024-5.275,8.308-7.924,12.734-2.634,4.4-5.133,8.829-7.427,13.161-2.282,4.31-4.28,8.526-5.939,12.531a52.983,52.983,0,0,0-3.352,10.913,17.465,17.465,0,0,0,.2,8.158,6.813,6.813,0,0,0,4.4,4.485,1.344,1.344,0,0,1,.889.745.931.931,0,0,1-.121.835A1.12,1.12,0,0,1,571.219,379.142Zm24.633-23.086a31.462,31.462,0,0,0,3.7-2.968c1.312-1.2,2.7-2.556,4.134-4.023s2.854-2.984,4.221-4.495c2.876-3.021,5.488-5.706,7.761-7.98,2.125-2.125,3.959-3.235,5.421-3.3.3,0,.371.062.406.367a7.158,7.158,0,0,1-.207,2.237q-.327,1.471-.762,3.212a14.14,14.14,0,0,0-.459,3.4,5.037,5.037,0,0,0,.774,2.848c.571.857,1.647,1.293,3.24,1.293h.007a8.879,8.879,0,0,0,3.982-1.357,42.037,42.037,0,0,0,3.784-2.56c1.2-.906,2.331-1.729,3.369-2.445a4.534,4.534,0,0,1,2.4-.972,1.079,1.079,0,0,1,1.092.522c.331.587.724,1.243,1.168,1.946a7.52,7.52,0,0,0,2.106,2.115,8.159,8.159,0,0,0,4.612,1,21.035,21.035,0,0,0,8.438-2.03,81.748,81.748,0,0,0,8.227-4.2l.514-.3-.735-1.836-.69.388c-1.182.665-2.465,1.361-3.815,2.071-1.372.723-2.758,1.4-4.121,2.006a26.367,26.367,0,0,1-4.053,1.441,14.481,14.481,0,0,1-3.655.524,4.344,4.344,0,0,1-3.069-.837,9.122,9.122,0,0,1-1.578-2.086q-.66-1.21-1.268-2.26a2.823,2.823,0,0,0-2.625-1.386,6.037,6.037,0,0,0-3.361,1.39c-1.175.844-2.421,1.812-3.706,2.875a42.627,42.627,0,0,1-3.77,2.8,5.848,5.848,0,0,1-3.068,1.144c-.9,0-.988-.333-1.028-.477a4.9,4.9,0,0,1,.014-2.152c.176-.955.412-2.027.7-3.187a25.616,25.616,0,0,0,.619-3.321,4.529,4.529,0,0,0-.476-2.839,2.974,2.974,0,0,0-2.787-1.271,6.691,6.691,0,0,0-3.361,1.026,19.879,19.879,0,0,0-3.463,2.665c-1.172,1.1-2.453,2.379-3.806,3.806l-4.215,4.434q-2.078,2.188-4.1,4.263c-1.344,1.378-2.639,2.619-3.849,3.686a34.185,34.185,0,0,1-3.325,2.629,4.355,4.355,0,0,1-2.238.92c-.194,0-.323,0-.347-.488a8.572,8.572,0,0,1,.464-2.721,36.832,36.832,0,0,1,1.558-4.082c.688-1.553,1.437-3.126,2.227-4.673s1.606-3.084,2.4-4.525c.806-1.466,1.474-2.726,1.984-3.746a2.047,2.047,0,0,0,.221-1.793,1.332,1.332,0,0,0-.957-.726,1.723,1.723,0,0,0-.39-.045c-.815,0-1.528.553-2.187,1.708-.577,1.08-1.244,2.394-2.037,4.018l-2.354,4.817c-.808,1.654-1.535,3.331-2.161,4.987a28.748,28.748,0,0,0-1.345,4.547,7.176,7.176,0,0,0,.02,3.518,2.439,2.439,0,0,0,2.577,1.687A6,6,0,0,0,595.852,356.056Zm62.926-7.658a26.3,26.3,0,0,0,6.7-1.457c2.684-.883,5.374-1.9,7.995-3.033s5.027-2.22,7.143-3.242c2.161-1.043,3.508-1.735,4.118-2.117l.534-.334-.829-1.659-.637.365c-.495.283-1.806.938-3.9,1.948s-4.484,2.1-7.09,3.217c-2.583,1.114-5.234,2.119-7.879,2.989a25.153,25.153,0,0,1-6.079,1.389c-.973,0-1.277-.2-1.346-.264s-.2-.172-.108-.6a5.118,5.118,0,0,1,.776-1.673,17.16,17.16,0,0,1,1.441-1.89,22.8,22.8,0,0,0,4.727-.72,16.6,16.6,0,0,0,3.918-1.534c1.869-.975,2.949-2.025,3.3-3.21a1.651,1.651,0,0,0-.2-1.522,2.979,2.979,0,0,0-2.542-.846,8.548,8.548,0,0,0-3.875,1.062,23.824,23.824,0,0,0-3.835,2.481,22.754,22.754,0,0,0-3.332,3.219,12.265,12.265,0,0,0-2.087,3.317,3.458,3.458,0,0,0-.02,2.928,2.765,2.765,0,0,0,2.683,1.2C658.492,348.41,658.636,348.406,658.778,348.4Zm10.042-11.375a3.379,3.379,0,0,1-.508.425c-.355.249-.675.479-.961.693a15.946,15.946,0,0,1-3.206,1.232,16.984,16.984,0,0,1-1.93.414,21.863,21.863,0,0,1,2.351-1.552,8.073,8.073,0,0,1,3.926-1.222C668.623,337.013,668.732,337.017,668.82,337.023Zm-1.638,48.318a44.858,44.858,0,0,0,7.287-6.393,67.416,67.416,0,0,0,4.37-5.145c1.5-1.94,3-3.974,4.453-6.047s2.842-4.146,4.124-6.158c1.252-1.971,2.323-3.8,3.185-5.438,4.454-3.3,8.874-6.374,13.138-9.131,4.3-2.784,8.915-5.6,13.709-8.357l.522-.3-.744-1.859-7.43,4.41c-2.144,1.272-4.308,2.622-6.431,4.013s-4.269,2.82-6.414,4.276c-1.406.952-2.867,1.979-4.366,3.068,1.011-2.049,1.958-4.172,2.827-6.342a91.552,91.552,0,0,0,3.434-10.6,1.72,1.72,0,0,0-.306-1.481,1.441,1.441,0,0,0-1.035-.42,1.662,1.662,0,0,0-.621.127,3.125,3.125,0,0,0-3.211-2.207,10.362,10.362,0,0,0-5.986,2.154,26.364,26.364,0,0,0-4.947,4.5,11.964,11.964,0,0,0-2.606,4.661,2.09,2.09,0,0,0,2.262,2.883,9.232,9.232,0,0,0,3.971-1.11,23.491,23.491,0,0,0,3.436-1.973,45.868,45.868,0,0,0,3.614-2.835q.582-.508,1.11-.986c-.818,2.869-1.672,5.571-2.549,8.06a63.83,63.83,0,0,1-3.88,8.855,137.447,137.447,0,0,0-10.607,8.821,119.481,119.481,0,0,0-9.627,10.011c-3.733,4.182-5.958,7.181-6.8,9.169-.647,1.53-.762,2.561-.362,3.242a1.5,1.5,0,0,0,1.2.729,2.626,2.626,0,0,0,.286.015C663.335,387.55,664.969,386.828,667.182,385.341ZM684.27,362.12c-1.13,1.822-2.322,3.655-3.543,5.449-1.231,1.811-2.514,3.608-3.813,5.339s-2.6,3.325-3.9,4.766a40.126,40.126,0,0,1-6.4,5.811c-2.446,1.716-3.529,2.037-4.042,2.057a4.035,4.035,0,0,1,.478-1.648c.734-1.677,2.849-4.489,6.287-8.356,2.972-3.334,6.033-6.487,9.1-9.372,2.248-2.115,4.639-4.188,7.138-6.188Q684.942,361.034,684.27,362.12Zm9.817-27.091a1.027,1.027,0,0,0,.681.815c-.5.543-1.134,1.151-1.885,1.817a45.234,45.234,0,0,1-4.115,3.248,9.327,9.327,0,0,1-1.17.71c-.537.286-1.129.574-1.762.854s-1.27.529-1.908.742a4.787,4.787,0,0,1-1.423.293c-.3,0-.413-.064-.432-.089-.03-.04-.078-.248.059-.721a9.6,9.6,0,0,1,2.049-3.409,20.4,20.4,0,0,1,4.077-3.544,8.178,8.178,0,0,1,4.539-1.579C693.755,334.166,693.985,334.592,694.087,335.029Zm21.948,12.379a23.66,23.66,0,0,0,3.438-1.959c1.016-.719,2.022-1.475,2.989-2.249q.355-.285.7-.574a5.438,5.438,0,0,0-.179,2.06,3.051,3.051,0,0,0,.856,1.874,3.191,3.191,0,0,0,2.351.744c1.862,0,4.562-.733,8.269-2.247,1.679-.729,3.589-1.638,5.676-2.7s4.348-2.293,6.765-3.685l.521-.3-.739-1.849-.694.4c-2.388,1.375-4.626,2.6-6.651,3.653a59.576,59.576,0,0,1-5.564,2.563,23.674,23.674,0,0,1-4.357,1.649,13.166,13.166,0,0,1-3.007.472c-1.05,0-1.1-.341-1.121-.454a4.8,4.8,0,0,1,.3-2.19,14.611,14.611,0,0,1,1.307-2.823q.87-1.469,1.415-2.339a1.575,1.575,0,0,0,.248-1.4,1.182,1.182,0,0,0-.91-.682,2.094,2.094,0,0,0-.435-.049,1.512,1.512,0,0,0-1.059.407,3.06,3.06,0,0,0-2.812-1.414,10.655,10.655,0,0,0-6.033,2.132,23.476,23.476,0,0,0-4.964,4.533,12.558,12.558,0,0,0-2.541,4.665,2.082,2.082,0,0,0,2.261,2.867A9.319,9.319,0,0,0,716.035,347.408Zm7.831-9.772a1.046,1.046,0,0,0,.782.871l-.015.028c-.774.771-1.7,1.638-2.74,2.578a37.813,37.813,0,0,1-3.4,2.712c-.358.214-.8.465-1.339.75s-1.11.574-1.721.86a16.584,16.584,0,0,1-1.839.736,4.788,4.788,0,0,1-1.423.293c-.33,0-.412-.076-.413-.076s-.088-.159.087-.7a11.085,11.085,0,0,1,2.169-3.509,19.928,19.928,0,0,1,4.126-3.617A8.382,8.382,0,0,1,722.795,337C723.581,337,723.78,337.33,723.866,337.636Zm12.918,29.214a7.632,7.632,0,0,0,2.93-.773,11.947,11.947,0,0,0,3.607-2.554,35.817,35.817,0,0,0,4.243-5.191,29.2,29.2,0,0,0,2.95-5.36c2.123-1.484,4.326-2.987,6.55-4.471,2.283-1.521,4.5-2.934,6.6-4.2,2.172-1.31,4.048-2.418,5.735-3.387s3.056-1.718,4.07-2.225l.571-.285-.736-1.841-.674.337c-1.03.515-2.349,1.238-4.033,2.21-1.662.961-3.527,2.068-5.542,3.292-2.055,1.248-4.217,2.616-6.425,4.064-1.656,1.085-3.338,2.215-5.017,3.372a10.055,10.055,0,0,0-.073-5.358,29.3,29.3,0,0,0-2.468-5.608c-.981-1.706-1.878-3.354-2.666-4.9a5.752,5.752,0,0,1-.281-4.578,5.362,5.362,0,0,1,1.8-2.724,9.129,9.129,0,0,1,2.95-1.63,8.543,8.543,0,0,1,2.62-.422c.172,0,.345.006.516.017a3.69,3.69,0,0,1,2.275.819,1.7,1.7,0,0,0,1.1.483,1.245,1.245,0,0,0,1.114-.736,1.591,1.591,0,0,0-.416-2.1,6.48,6.48,0,0,0-3.79-1.6,9.5,9.5,0,0,0-4.424.589,12.162,12.162,0,0,0-4.006,2.551,9.24,9.24,0,0,0-2.606,4.384,7.65,7.65,0,0,0,.671,5.881c.937,1.647,1.935,3.33,2.968,5a23.408,23.408,0,0,1,2.445,5.476,9.871,9.871,0,0,1-.612,6.458c-1.5,1-3.195,2.222-5.054,3.626a60.269,60.269,0,0,0-5.287,4.457l-1.877,1.988c-1.259,1.426-1.8,2.484-1.7,3.332a1.744,1.744,0,0,0,1.8,1.6C736.666,366.849,736.724,366.85,736.784,366.85Zm.059-1.981a4.683,4.683,0,0,1,1.139-1.7l1.809-2.027a59.662,59.662,0,0,1,4.762-3.842q1.236-.9,2.353-1.72-.632,1.121-1.373,2.258a22.178,22.178,0,0,1-3.741,4.378,10.209,10.209,0,0,1-2.511,1.845,7,7,0,0,1-2.169.8c-.06.006-.115.01-.167.01S736.864,364.869,736.843,364.869Zm51.672-9.007a.951.951,0,0,0,.129-.895.974.974,0,0,0-.716-.588,2.737,2.737,0,0,1-2.2-2.328,11.954,11.954,0,0,1,.42-4.551,43.492,43.492,0,0,1,1.886-5.5,54.88,54.88,0,0,0,1.941-5.379,8.292,8.292,0,0,0,.336-4.307c-.236-.939-1.048-2.058-3.575-2.058a8.451,8.451,0,0,0-5.132,2.006,32.279,32.279,0,0,0-4.756,4.587c-1.165,1.364-2.276,2.8-3.316,4.281L775.1,337.7c.8-1.744,1.606-3.431,2.4-5.015.777-1.555,1.529-2.954,2.236-4.16,2.754-2.9,5.781-6.259,9-9.985,3.246-3.757,6.33-7.544,9.164-11.25,3.867-4.983,6.295-8.647,7.422-11.2.989-2.238,1.229-3.5.8-4.224a1.18,1.18,0,0,0-.939-.579l-.138-.006c-.705,0-1.934.395-5.216,3.476a68.693,68.693,0,0,0-8.524,10.4,244.9,244.9,0,0,0-13.779,22.179c-4.1,7.474-8.03,15.148-11.661,22.774a1.883,1.883,0,0,0-.213,1.668,1.363,1.363,0,0,0,1.1.718,2.012,2.012,0,0,0,.306.024c.9,0,1.623-.607,2.12-1.768l.081-.163,1.277-1.7c.888-1.185,1.963-2.724,3.2-4.575,1.219-1.831,2.551-3.636,3.957-5.367a28.386,28.386,0,0,1,4.381-4.382,6.894,6.894,0,0,1,4.223-1.712c1.612,0,1.734.662,1.781.91a7.514,7.514,0,0,1-.471,3.491c-.5,1.548-1.142,3.263-1.9,5.1a40.1,40.1,0,0,0-1.838,5.515,10.437,10.437,0,0,0-.166,4.986,4.814,4.814,0,0,0,3.387,3.367,1.093,1.093,0,0,0,.543.151A1.044,1.044,0,0,0,788.515,355.862Zm14.946-60.026a65.378,65.378,0,0,1-7.2,10.385c-2.591,3.313-5.329,6.657-8.137,9.94q-1.692,1.977-3.369,3.879,1.24-2.045,2.464-4.053c2.031-3.338,4.125-6.607,6.225-9.72a72.441,72.441,0,0,1,7.531-9.811,16.648,16.648,0,0,1,3.43-3A11.787,11.787,0,0,1,803.461,295.836Zm5.664,49.221c1.678-.729,3.571-1.638,5.626-2.7s4.3-2.3,6.705-3.682l.522-.3-.744-1.859-.7.414c-2.321,1.379-4.52,2.606-6.534,3.649a58.953,58.953,0,0,1-5.541,2.552c-3.252,1.415-5.774,2.132-7.5,2.132a1.3,1.3,0,0,1-.937-.254,1.065,1.065,0,0,1-.126-.774,14.272,14.272,0,0,1,1.257-4.012,37.49,37.49,0,0,1,2.472-4.569c.949-1.5,1.607-2.538,1.988-3.148a1.426,1.426,0,0,0,.165-1.22,1.506,1.506,0,0,0-.963-.868,2.157,2.157,0,0,0-.766-.154,1.387,1.387,0,0,0-1.287.794q-.551.987-1.92,3.51a36.653,36.653,0,0,0-2.343,5.246,12.8,12.8,0,0,0-.86,4.868c.055.981.531,2.626,3.1,2.626C802.682,347.3,805.418,346.571,809.125,345.057Zm-2.467-17.46a1.738,1.738,0,0,0,1.177-.726,8.28,8.28,0,0,0,.954-1.368c.866-1.473.96-2.061.834-2.49a.907.907,0,0,0-.462-.561l-.147-.075h-.166c-.36,0-.631.235-1.065.725a15.448,15.448,0,0,0-1.073,1.381c-.767,1.365-1.125,2.328-.542,2.911l.2.2Zm13.3,28.459a31.548,31.548,0,0,0,3.7-2.968c1.312-1.2,2.7-2.556,4.134-4.023s2.853-2.984,4.22-4.495c2.877-3.021,5.488-5.706,7.762-7.98,2.125-2.125,3.959-3.235,5.421-3.3.3,0,.371.062.4.367a7.152,7.152,0,0,1-.206,2.237q-.327,1.471-.762,3.212a14.092,14.092,0,0,0-.459,3.4,5.045,5.045,0,0,0,.773,2.848c.572.857,1.648,1.293,3.241,1.293h.007a8.879,8.879,0,0,0,3.982-1.357,42.185,42.185,0,0,0,3.784-2.56c1.2-.906,2.331-1.729,3.369-2.445a4.534,4.534,0,0,1,2.4-.972,1.078,1.078,0,0,1,1.092.522c.33.587.723,1.243,1.168,1.946a7.494,7.494,0,0,0,2.106,2.115,8.159,8.159,0,0,0,4.612,1,21.035,21.035,0,0,0,8.438-2.03,81.748,81.748,0,0,0,8.227-4.2l.514-.3-.735-1.836-.69.388c-1.182.665-2.465,1.361-3.815,2.071-1.372.723-2.758,1.4-4.121,2.006a26.339,26.339,0,0,1-4.054,1.441,14.474,14.474,0,0,1-3.655.524,4.343,4.343,0,0,1-3.068-.837,9.124,9.124,0,0,1-1.578-2.086q-.662-1.21-1.268-2.26a2.824,2.824,0,0,0-2.625-1.386,6.035,6.035,0,0,0-3.361,1.39c-1.175.844-2.422,1.812-3.706,2.875a42.627,42.627,0,0,1-3.77,2.8,5.848,5.848,0,0,1-3.068,1.144c-.9,0-.989-.333-1.028-.477a4.9,4.9,0,0,1,.014-2.152c.175-.955.412-2.027.7-3.187a25.616,25.616,0,0,0,.619-3.321,4.536,4.536,0,0,0-.476-2.839,2.975,2.975,0,0,0-2.787-1.271,6.7,6.7,0,0,0-3.362,1.026,19.912,19.912,0,0,0-3.462,2.665c-1.172,1.1-2.453,2.379-3.806,3.806l-4.215,4.434q-2.079,2.188-4.1,4.263c-1.344,1.378-2.639,2.619-3.848,3.686a34.3,34.3,0,0,1-3.325,2.629,4.355,4.355,0,0,1-2.238.92c-.194,0-.323,0-.347-.488a8.594,8.594,0,0,1,.463-2.721,37.065,37.065,0,0,1,1.559-4.082c.687-1.553,1.437-3.126,2.227-4.673s1.606-3.084,2.4-4.525c.806-1.466,1.473-2.726,1.984-3.746a2.047,2.047,0,0,0,.221-1.793,1.332,1.332,0,0,0-.958-.726,1.714,1.714,0,0,0-.389-.045c-.816,0-1.528.553-2.187,1.708-.578,1.08-1.244,2.394-2.037,4.018l-2.354,4.817c-.808,1.654-1.535,3.331-2.161,4.987a28.645,28.645,0,0,0-1.345,4.547,7.176,7.176,0,0,0,.02,3.518,2.438,2.438,0,0,0,2.577,1.687A6,6,0,0,0,819.961,356.056Zm65.989-8.648a23.662,23.662,0,0,0,3.438-1.959c1.016-.719,2.022-1.475,2.989-2.249q.355-.285.7-.574a5.438,5.438,0,0,0-.179,2.06,3.051,3.051,0,0,0,.856,1.874,3.191,3.191,0,0,0,2.351.744c1.862,0,4.562-.733,8.269-2.247,1.679-.729,3.589-1.638,5.676-2.7,2.072-1.053,4.348-2.293,6.765-3.685l.521-.3-.739-1.849-.693.4c-2.389,1.375-4.626,2.6-6.652,3.653a59.582,59.582,0,0,1-5.564,2.563,23.678,23.678,0,0,1-4.357,1.649,13.166,13.166,0,0,1-3.007.472c-1.05,0-1.1-.341-1.121-.454a4.8,4.8,0,0,1,.3-2.19,14.669,14.669,0,0,1,1.307-2.823q.87-1.469,1.415-2.339a1.575,1.575,0,0,0,.248-1.4,1.182,1.182,0,0,0-.91-.682,2.093,2.093,0,0,0-.435-.049,1.512,1.512,0,0,0-1.059.407,3.058,3.058,0,0,0-2.812-1.414,10.655,10.655,0,0,0-6.033,2.132,23.476,23.476,0,0,0-4.964,4.533,12.557,12.557,0,0,0-2.541,4.665,2.083,2.083,0,0,0,2.262,2.867A9.319,9.319,0,0,0,885.95,347.408Zm7.831-9.772a1.046,1.046,0,0,0,.782.871l-.015.028c-.774.771-1.7,1.638-2.74,2.578a37.813,37.813,0,0,1-3.4,2.712c-.358.214-.8.465-1.339.75s-1.11.574-1.721.86a16.574,16.574,0,0,1-1.839.736,4.788,4.788,0,0,1-1.423.293c-.33,0-.412-.076-.413-.076s-.087-.159.087-.7a11.086,11.086,0,0,1,2.169-3.509,19.927,19.927,0,0,1,4.126-3.617A8.382,8.382,0,0,1,892.71,337C893.5,337,893.7,337.33,893.781,337.636ZM604.928,473.312a61.032,61.032,0,0,0,9.581-4.54,111.424,111.424,0,0,0,9.75-6.391c3.249-2.374,6.43-4.87,9.454-7.42s5.9-5.1,8.565-7.576,5.03-4.756,7.08-6.806l.68-.68-1.746-.873-.354.353c-1.892,1.893-4.167,4.039-6.762,6.38s-5.436,4.8-8.408,7.262-6.113,4.906-9.327,7.254a110.073,110.073,0,0,1-9.628,6.311,63.087,63.087,0,0,1-9.2,4.44,23.108,23.108,0,0,1-8.075,1.652c-3.593,0-6.176-.727-7.677-2.162a7.675,7.675,0,0,1-2.3-5.749,24.626,24.626,0,0,1,1.871-8.831,70.651,70.651,0,0,1,5.2-10.678,134.435,134.435,0,0,1,7.462-11.273c2.779-3.792,5.695-7.442,8.667-10.848s5.919-6.5,8.768-9.2a73.805,73.805,0,0,1,7.4-6.278q.936.191,1.833.377c.691.147,1.364.292,1.983.428a39.976,39.976,0,0,0,3.956.891,24.308,24.308,0,0,0,4.084.338h.007q.371.012.729.012a14.446,14.446,0,0,0,5.3-.881,11.116,11.116,0,0,0,3.817-2.314,6.6,6.6,0,0,0,1.595-2.879,3.979,3.979,0,0,0-.538-2.887,5.136,5.136,0,0,0-3.018-2.045,8.536,8.536,0,0,0-2.385-.3,17.655,17.655,0,0,0-2.961.283,27.535,27.535,0,0,0-7.246,2.412,57.591,57.591,0,0,0-7.467,4.327,41.832,41.832,0,0,0-6.511-.563l-.4,0a42.809,42.809,0,0,0-8.341.947,77.705,77.705,0,0,0-11.326,3.369,128.779,128.779,0,0,0-14.786,6.788c-.246.148-.995.6-.811,1.308a.841.841,0,0,0,.852.64,1.945,1.945,0,0,0,.748-.191,124.1,124.1,0,0,1,14.206-6.532,81.226,81.226,0,0,1,10.908-3.312,38.356,38.356,0,0,1,7.924-.972l.349,0c1.689.026,3.283.117,4.76.27a95.335,95.335,0,0,0-7.576,6.411c-3.18,2.96-6.382,6.254-9.517,9.791s-6.191,7.3-9.069,11.158a108.554,108.554,0,0,0-7.548,11.515,67.255,67.255,0,0,0-4.978,10.788,21.924,21.924,0,0,0-1.4,9.219,9.151,9.151,0,0,0,3.55,6.612c2.05,1.585,5.232,2.389,9.457,2.389A26.06,26.06,0,0,0,604.928,473.312ZM628.3,406.033a35.725,35.725,0,0,1,12.157-5.333,14.2,14.2,0,0,1,2.529-.261,6.265,6.265,0,0,1,1.845.241,4.4,4.4,0,0,1,2.137,1.238,1.932,1.932,0,0,1,.237,1.466,3.448,3.448,0,0,1-1.014,1.727,8.822,8.822,0,0,1-3.1,1.868,14.218,14.218,0,0,1-5.025.776,33.347,33.347,0,0,1-3.915-.429,39.2,39.2,0,0,1-3.86-.87Zm42.388,51.848a.952.952,0,0,0,.129-.9.97.97,0,0,0-.716-.588,2.738,2.738,0,0,1-2.2-2.329,11.954,11.954,0,0,1,.42-4.551,43.5,43.5,0,0,1,1.886-5.5,54.6,54.6,0,0,0,1.941-5.379,8.291,8.291,0,0,0,.336-4.307c-.236-.939-1.048-2.057-3.574-2.057a8.446,8.446,0,0,0-5.133,2.006,32.277,32.277,0,0,0-4.756,4.587c-1.165,1.363-2.276,2.8-3.315,4.28l1.572-3.431c.8-1.744,1.606-3.431,2.4-5.015.777-1.555,1.529-2.954,2.236-4.16,2.754-2.9,5.781-6.259,9-9.984,3.246-3.758,6.331-7.544,9.165-11.25,3.867-4.983,6.294-8.648,7.422-11.2.988-2.238,1.228-3.5.8-4.223a1.181,1.181,0,0,0-.938-.58l-.139-.006c-.705,0-1.934.395-5.216,3.476a68.717,68.717,0,0,0-8.524,10.4A245.268,245.268,0,0,0,659.7,429.354c-4.1,7.474-8.03,15.148-11.661,22.774a1.884,1.884,0,0,0-.213,1.668,1.361,1.361,0,0,0,1.1.718,1.894,1.894,0,0,0,.306.025c.9,0,1.623-.607,2.12-1.768l.081-.163,1.277-1.7c.888-1.185,1.964-2.724,3.2-4.575,1.22-1.83,2.551-3.636,3.957-5.367a28.43,28.43,0,0,1,4.381-4.382,6.892,6.892,0,0,1,4.223-1.711c1.612,0,1.735.661,1.781.909a7.528,7.528,0,0,1-.47,3.492c-.5,1.547-1.143,3.262-1.9,5.1a40.1,40.1,0,0,0-1.838,5.516,10.446,10.446,0,0,0-.166,4.985,4.815,4.815,0,0,0,3.387,3.368,1.1,1.1,0,0,0,.544.15A1.044,1.044,0,0,0,670.684,457.881Zm14.946-60.027a65.282,65.282,0,0,1-7.2,10.386c-2.592,3.312-5.33,6.656-8.138,9.939q-1.692,1.979-3.368,3.879,1.239-2.043,2.463-4.053c2.031-3.338,4.125-6.607,6.225-9.72a72.434,72.434,0,0,1,7.531-9.81,16.632,16.632,0,0,1,3.431-3A11.869,11.869,0,0,1,685.63,397.854Zm-4,51.572a23.715,23.715,0,0,0,3.438-1.959c1.016-.718,2.022-1.475,2.989-2.249q.355-.283.7-.574a5.461,5.461,0,0,0-.18,2.06,3.054,3.054,0,0,0,.857,1.874,3.191,3.191,0,0,0,2.351.744c1.862,0,4.562-.733,8.268-2.247,1.68-.729,3.59-1.637,5.677-2.7s4.348-2.293,6.765-3.685l.521-.3-.739-1.849-.694.4c-2.388,1.376-4.626,2.605-6.651,3.653a59.439,59.439,0,0,1-5.564,2.563,23.65,23.65,0,0,1-4.358,1.65,13.209,13.209,0,0,1-3.006.472c-1.05,0-1.1-.342-1.122-.455a4.8,4.8,0,0,1,.3-2.19,14.576,14.576,0,0,1,1.307-2.822q.87-1.469,1.415-2.34a1.571,1.571,0,0,0,.247-1.4,1.18,1.18,0,0,0-.909-.682,2.089,2.089,0,0,0-.435-.048,1.506,1.506,0,0,0-1.059.407,3.058,3.058,0,0,0-2.812-1.415,10.667,10.667,0,0,0-6.034,2.132,23.5,23.5,0,0,0-4.963,4.533,12.565,12.565,0,0,0-2.541,4.665,2.083,2.083,0,0,0,2.261,2.868A9.308,9.308,0,0,0,681.63,449.426Zm7.831-9.772a1.044,1.044,0,0,0,.781.871l-.014.028c-.775.771-1.7,1.638-2.741,2.578a37.48,37.48,0,0,1-3.4,2.712c-.358.214-.8.465-1.339.75s-1.11.574-1.721.861a16.775,16.775,0,0,1-1.839.735,4.756,4.756,0,0,1-1.423.293c-.33,0-.413-.075-.413-.076s-.088-.158.087-.7a11.089,11.089,0,0,1,2.168-3.509,19.874,19.874,0,0,1,4.127-3.617,8.375,8.375,0,0,1,4.651-1.565C689.176,439.019,689.374,439.348,689.461,439.654Zm31.283,7.421c1.678-.728,3.571-1.638,5.626-2.7s4.3-2.3,6.706-3.683l.522-.3-.744-1.859-.7.414c-2.321,1.378-4.52,2.6-6.534,3.648a59.079,59.079,0,0,1-5.541,2.553c-3.252,1.415-5.775,2.132-7.5,2.132a1.3,1.3,0,0,1-.937-.255,1.063,1.063,0,0,1-.126-.774,14.272,14.272,0,0,1,1.257-4.012,37.55,37.55,0,0,1,2.472-4.568c.949-1.5,1.607-2.539,1.988-3.148a1.424,1.424,0,0,0,.164-1.221,1.5,1.5,0,0,0-.962-.868,2.176,2.176,0,0,0-.766-.153,1.385,1.385,0,0,0-1.287.794q-.551.987-1.92,3.509a36.818,36.818,0,0,0-2.344,5.246,12.8,12.8,0,0,0-.859,4.869c.055.98.531,2.625,3.1,2.625C714.3,449.322,717.038,448.589,720.744,447.075Zm-2.466-17.46a1.734,1.734,0,0,0,1.177-.726,8.239,8.239,0,0,0,.954-1.368c.866-1.473.96-2.061.834-2.489a.907.907,0,0,0-.462-.562l-.147-.074h-.166c-.36,0-.631.234-1.066.725a15.625,15.625,0,0,0-1.072,1.38c-.767,1.365-1.125,2.328-.543,2.911l.2.2Zm41.211,45.194a78.868,78.868,0,0,0,8.783-5.413c3.062-2.151,6.3-4.63,9.622-7.368s6.6-5.437,9.852-8.1c3.171-2.6,6.352-5.139,9.455-7.541a74.074,74.074,0,0,1,8.35-5.695l.524-.3-.741-1.853-.694.4a84.081,84.081,0,0,0-8.943,6.072c-3.16,2.425-6.389,4.99-9.628,7.648l-9.713,7.967c-3.228,2.647-6.349,5.07-9.275,7.2a59.633,59.633,0,0,1-8.277,5.141,15.435,15.435,0,0,1-6.7,1.9c-2.078,0-2.479-1.051-2.6-1.967a14.587,14.587,0,0,1,.636-5.743,49.449,49.449,0,0,1,2.483-6.748q1.538-3.4,2.3-5.151c1.671-3.775,3.563-7.761,5.624-11.847,2.108-4.179,4.133-8.136,6.018-11.762s3.638-6.953,5.2-9.844q2.093-3.885,3.1-5.777l49.03-1.2.058-.011a1.44,1.44,0,0,0,1.168-.808.85.85,0,0,0-.076-.8,1.177,1.177,0,0,0-1.01-.42l-47.562.955q.622-.771,1.576-1.963,1.973-2.466,4.548-5.754c1.724-2.2,3.5-4.546,5.269-6.97s3.37-4.709,4.727-6.76a41.161,41.161,0,0,0,3.008-5.184c.562-1.227.659-1.975.322-2.5a1.136,1.136,0,0,0-1.008-.509c-.793,0-1.732.569-2.954,1.791a43.521,43.521,0,0,0-3.618,4.229c-1.324,1.728-2.732,3.712-4.187,5.894s-2.9,4.4-4.279,6.583-2.7,4.293-3.945,6.3q-1.73,2.8-2.985,4.884l-24.562.754a1.472,1.472,0,0,0-1.5,1.25,1.324,1.324,0,0,0,.178,1.169,1.092,1.092,0,0,0,.914.391l23.532-1.244-.743,1.2q-1.207,2.193-3.45,6.3c-1.48,2.706-3.122,5.824-4.881,9.269-1.747,3.421-3.553,7.034-5.37,10.74-1.837,3.75-3.535,7.367-5.04,10.737-.658,1.387-1.486,3.277-2.532,5.778a45.942,45.942,0,0,0-2.389,7.337,13.246,13.246,0,0,0-.1,6.473c.39,1.4,1.553,3.081,4.883,3.081A16.931,16.931,0,0,0,759.489,474.809Zm34.16-87.878c-.644,1.18-1.589,2.69-2.811,4.485-1.238,1.819-2.65,3.8-4.2,5.89-1.04,1.4-2.065,2.769-3.061,4.081.795-1.271,1.633-2.593,2.505-3.95,1.316-2.046,2.583-3.955,3.766-5.675a48.714,48.714,0,0,1,3.182-4.209c.262-.3.485-.54.674-.726C793.687,386.861,793.669,386.895,793.649,386.931Zm7.426,63.486a26.3,26.3,0,0,0,6.7-1.458c2.684-.882,5.374-1.9,7.995-3.032s5.029-2.221,7.144-3.243c2.16-1.042,3.507-1.735,4.117-2.116l.535-.335-.83-1.658-.636.364c-.495.283-1.807.939-3.9,1.948s-4.483,2.1-7.089,3.218c-2.584,1.113-5.235,2.119-7.88,2.989a25.141,25.141,0,0,1-6.079,1.388c-.973,0-1.276-.2-1.346-.263s-.194-.172-.108-.6a5.148,5.148,0,0,1,.776-1.673,17.151,17.151,0,0,1,1.441-1.889,22.849,22.849,0,0,0,4.727-.721,16.655,16.655,0,0,0,3.919-1.533c1.869-.976,2.948-2.026,3.3-3.211a1.65,1.65,0,0,0-.2-1.521,2.977,2.977,0,0,0-2.542-.847,8.548,8.548,0,0,0-3.875,1.062,23.891,23.891,0,0,0-3.835,2.481,22.709,22.709,0,0,0-3.332,3.22,12.244,12.244,0,0,0-2.086,3.317,3.452,3.452,0,0,0-.02,2.927,2.762,2.762,0,0,0,2.682,1.2C800.789,450.428,800.933,450.424,801.075,450.417Zm10.042-11.376a3.316,3.316,0,0,1-.507.425c-.356.249-.676.479-.962.693a15.886,15.886,0,0,1-3.206,1.232,16.775,16.775,0,0,1-1.93.414,21.863,21.863,0,0,1,2.351-1.552,8.076,8.076,0,0,1,3.926-1.222C810.921,439.031,811.029,439.035,811.117,439.041Zm14.48,10.385a23.655,23.655,0,0,0,3.438-1.959c1.017-.718,2.022-1.475,2.99-2.249q.354-.283.7-.574a5.458,5.458,0,0,0-.179,2.06,3.047,3.047,0,0,0,.856,1.874,3.191,3.191,0,0,0,2.351.744c1.862,0,4.562-.733,8.269-2.247,1.679-.729,3.589-1.637,5.676-2.7s4.348-2.293,6.765-3.685l.522-.3-.74-1.849-.693.4c-2.389,1.376-4.626,2.605-6.652,3.653a59.31,59.31,0,0,1-5.564,2.563,23.615,23.615,0,0,1-4.357,1.65,13.217,13.217,0,0,1-3.007.472c-1.049,0-1.1-.342-1.121-.455a4.8,4.8,0,0,1,.3-2.19,14.581,14.581,0,0,1,1.308-2.822q.868-1.469,1.414-2.34a1.574,1.574,0,0,0,.248-1.4,1.182,1.182,0,0,0-.91-.682,2.081,2.081,0,0,0-.434-.048,1.509,1.509,0,0,0-1.06.407,3.057,3.057,0,0,0-2.812-1.415,10.662,10.662,0,0,0-6.033,2.132,23.5,23.5,0,0,0-4.964,4.533,12.565,12.565,0,0,0-2.541,4.665,2.084,2.084,0,0,0,2.262,2.868A9.308,9.308,0,0,0,825.6,449.426Zm7.831-9.772a1.045,1.045,0,0,0,.782.871l-.014.028c-.775.771-1.7,1.638-2.741,2.578a37.48,37.48,0,0,1-3.4,2.712c-.358.214-.8.465-1.34.75s-1.11.574-1.721.861a16.7,16.7,0,0,1-1.839.735,4.755,4.755,0,0,1-1.423.293c-.329,0-.412-.075-.413-.076s-.087-.158.087-.7a11.074,11.074,0,0,1,2.169-3.509,19.866,19.866,0,0,1,4.126-3.617,8.375,8.375,0,0,1,4.651-1.565C833.143,439.019,833.342,439.348,833.428,439.654Z" transform="translate(-522.664 -290.831)" fill="#fff"/>
</svg>
