<svg xmlns="http://www.w3.org/2000/svg" width="400" height="70.135" viewBox="0 0 400 70.135">
  <g id="グループ_1014" data-name="グループ 1014" transform="translate(-520 -903.723)">
    <g id="グループ_1011" data-name="グループ 1011">
      <g id="グループ_1010" data-name="グループ 1010">
        <path id="パス_4090" data-name="パス 4090" d="M916.04,955c-.116,1.056-.386,1.621-1.831,1.657-1,.019-2.138.037-3.216.037-4.065,0-4.623-.037-4.623-1,0-.2.038-.6.038-.692h-3.555a.373.373,0,1,1,0-.746H906.5c.135-.947.4-1.53,1.888-1.566.9-.037,1.984-.037,3.082-.037,1.118,0,2.254,0,3.294.037,1.04.018,1.406.454,1.406,1v.091c0,.128-.019.292-.038.474h3.388a.352.352,0,0,1,.386.363.357.357,0,0,1-.386.383Zm-11.982,10.489c-.386,0-.885-.114-.885-.352s-.648-.577-.3-.565a13.957,13.957,0,0,0,6.022-1.158.442.442,0,0,1,.192-.055.47.47,0,0,1,.443.473.419.419,0,0,1-.269.383A16,16,0,0,1,904.058,965.488Zm13.5-12.82c0-.729-.578-.929-1.368-.947-1.156-.018-2.639-.018-4.141-.018-2.062,0-4.2,0-5.682.018-1.022.018-1.426.437-1.446.966v.71a.486.486,0,0,1-.52.455c-.462,0-.539-.255-.539-.947,0-.8.1-1.949,2.061-1.966,1.6-.019,3.217-.019,4.816-.019l-.019-1.367c0-.309.279-.27.568-.27.269,0,.53-.039.53.27v1.367c1.56,0,3.121,0,4.681.019,1.233.017,2.08.527,2.1,1.474v1a.487.487,0,0,1-.52.473.476.476,0,0,1-.52-.455Zm-1.587,10.544c-1.118.018-3.633.036-4.751.036s-3.555-.018-4.538-.036c-1.271-.036-1.81-.6-1.849-1.384-.019-.4-.038-.874-.038-1.329,0-.583.019-1.147.038-1.6.019-.692.578-1.329,1.811-1.348.79-.017,2.959-.017,3.806-.017,1.348,0,4.114.017,5.617.036,1.079.018,1.657.6,1.7,1.238.039.456.058,1.02.058,1.585,0,.51-.019,1-.058,1.438C917.707,962.575,917.129,963.176,915.974,963.212Zm-10.232-3.4v1.056h11.1v-1.056ZM916.8,959.1c-.038-.564-.327-.873-1.117-.892-1.078-.018-3.8-.036-5.135-.036-.808,0-2.958,0-3.651.018-.79.018-1.1.383-1.118.91l-.019.146H916.8Zm0,2.35h-11.04l.019.2c.02.655.443.893,1.156.91.867.019,3.286.037,4.345.037,1.079,0,3.518-.018,4.423-.037.674-.017,1.059-.291,1.1-.892Zm-6.175-6.538h-3.274c-.02.2-.058.4-.058.547v.054c0,.51.116.565,3.2.565Zm.212-1.657c-.886,0-1.733,0-2.369.018-.79.018-.925.309-1.04,1.075H910.7Zm.752,1.657-.154,1.166c.885,0,1.772-.019,2.5-.037.964-.036,1.022-.309,1.118-1.129Zm3.544-.564a4.392,4.392,0,0,0,.038-.511c0-.363-.173-.546-.827-.564-.733-.018-1.619-.018-2.544-.018l-.135,1.093Zm3.2,11a14.6,14.6,0,0,1-5.163-1.239.4.4,0,0,1-.27-.364.459.459,0,0,1,.463-.455.537.537,0,0,1,.212.054,15.826,15.826,0,0,0,5.875,1.044c.347-.007-.264.479-.264.716C919.185,965.354,918.736,965.343,918.332,965.343Z" fill="#e7380d"/>
      </g>
      <path id="パス_4091" data-name="パス 4091" d="M917.6,966.129h-12.95a2.4,2.4,0,0,1-2.4-2.4v-12.3a2.4,2.4,0,0,1,2.4-2.4H917.6a2.4,2.4,0,0,1,2.4,2.4v12.3A2.4,2.4,0,0,1,917.6,966.129Zm-12.95-16.467a1.774,1.774,0,0,0-1.773,1.772v12.3a1.774,1.774,0,0,0,1.773,1.772H917.6a1.774,1.774,0,0,0,1.772-1.772v-12.3a1.774,1.774,0,0,0-1.772-1.772Z" fill="#e7380d"/>
    </g>
    <g id="グループ_1012" data-name="グループ 1012">
      <path id="パス_4092" data-name="パス 4092" d="M556.761,944.5a1.189,1.189,0,1,1-1.189-1.195A1.19,1.19,0,0,1,556.761,944.5Z" fill="#5d3e3e"/>
      <path id="パス_4093" data-name="パス 4093" d="M556.761,941.426a1.189,1.189,0,1,1-1.189-1.2A1.193,1.193,0,0,1,556.761,941.426Z" fill="#5d3e3e"/>
      <path id="パス_4094" data-name="パス 4094" d="M559.371,943.231a1.2,1.2,0,1,1-1.2-1.19A1.2,1.2,0,0,1,559.371,943.231Z" fill="#5d3e3e"/>
      <path id="パス_4095" data-name="パス 4095" d="M559.273,946.208a1.193,1.193,0,1,1-1.19-1.2A1.192,1.192,0,0,1,559.273,946.208Z" fill="#5d3e3e"/>
      <path id="パス_4096" data-name="パス 4096" d="M554.347,942.921a1.19,1.19,0,1,1-1.19-1.2A1.187,1.187,0,0,1,554.347,942.921Z" fill="#5d3e3e"/>
      <path id="パス_4097" data-name="パス 4097" d="M582.228,946.179a22.22,22.22,0,0,0-8.7-2.9,16.241,16.241,0,0,0-1.649-6.351,22.122,22.122,0,0,0,5.213-8.21c3.035-8.294,1.7-18.219-3.367-25-8.254,1.9-15.685,8.6-18.726,16.892a22.664,22.664,0,0,0-1.393,7.036,22.765,22.765,0,0,0-2.767.737l-.009-.014-.247.1h-.005c-.064.022-.129.046-.193.071l-.684.275.016.022a16.874,16.874,0,0,0-9.9,16.552,22.371,22.371,0,0,0-6.921,4.372c-6.506,5.966-9.023,15.006-8.489,23.742,8.771,1.156,17.88-.442,24.386-6.4a22.435,22.435,0,0,0,4.84-6.3,16.9,16.9,0,0,0,2.917.261c.04,0,.079,0,.119,0s.079,0,.119,0a16.8,16.8,0,0,0,6.358-1.243,22.061,22.061,0,0,0,7.321,6.728c7.632,4.414,17.644,4.8,25.191.966C595.211,959.06,589.872,950.6,582.228,946.179Zm-23.2,1.3c-.082.059-.154.128-.234.189a1.187,1.187,0,0,0-.628-.184,1.187,1.187,0,0,0-1.081,1.682c-.137.137-.284.265-.416.407-.33-.354-.68-.692-1.041-1.018a1.19,1.19,0,1,0-1.341-1.18c0,.032.007.063.009.095-.336-.244-.686-.463-1.037-.678a1.188,1.188,0,1,0-1.058-2.124,16.5,16.5,0,0,0,.654-1.669h0a16.477,16.477,0,0,0,.461-1.789,1.2,1.2,0,0,0,1.028-1.172,16.21,16.21,0,0,0,2.328.182c.1,0,.2-.012.308-.014,0,.013,0,.025,0,.037a1.2,1.2,0,1,0,2.367-.233c.152-.023.309-.034.46-.061.037.283.1.565.149.847a1.189,1.189,0,0,0,.439,1.85c.035.117.059.237.1.354.05.154.116.3.171.451a1.184,1.184,0,1,0,.9,2.063c.063.124.117.253.183.375A16.458,16.458,0,0,0,559.031,947.479Zm-7.42-1.6,0,.017-.008,0ZM559.7,938.8a16.81,16.81,0,0,1-3.022.282,15.182,15.182,0,0,1-3-.288c.023-.435.024-.881.009-1.333a16.845,16.845,0,0,0-.742-4.632,14.252,14.252,0,0,0-1.457-3.463A17.958,17.958,0,0,1,557,928.42a15.744,15.744,0,0,1,4.911.937l1.055.432c.445.2.873.417,1.294.649.134.075.268.148.4.226s.23.15.347.223a20.05,20.05,0,0,1,3.029,2.47c.122.127.243.255.361.384a14.521,14.521,0,0,1-7.564,4.8Zm-18.012.56a15.729,15.729,0,0,1,8.688-9.572,15.8,15.8,0,0,1,1.705,4.237,18.653,18.653,0,0,1,.4,2.439,15.741,15.741,0,0,1-.7,6.184h0a15.763,15.763,0,0,1-1.229,2.79,16.96,16.96,0,0,0-9.612-.746A15.724,15.724,0,0,1,541.685,939.361Zm9.336,7.515a15.331,15.331,0,0,1,2.625,1.522h0a15.277,15.277,0,0,1,2.272,2.04,16.957,16.957,0,0,0-3.672,8.88,15.1,15.1,0,0,1-8.509-6.152l-.617-.965a15.976,15.976,0,0,1-2.052-6.381,15.843,15.843,0,0,1,8.865.617Zm8.967,12.686a15.025,15.025,0,0,1-6.632,0,15.837,15.837,0,0,1,3.316-8.224l.754-.9a14.77,14.77,0,0,1,4.9-3.563,16.851,16.851,0,0,0,7.281,6.289,15.078,15.078,0,0,1-8.51,6.153Zm12.287-13.743a15.975,15.975,0,0,1-2.051,6.381,15.714,15.714,0,0,1-6.808-5.764l-.616-1a15.169,15.169,0,0,1-1.869-5.726,15.6,15.6,0,0,0,8.208-5.093,15.559,15.559,0,0,1,3.266,10.073Z" fill="#5d3e3e"/>
      <path id="パス_4098" data-name="パス 4098" d="M546.128,921.425a13.211,13.211,0,0,0-7.2-10.282,13.193,13.193,0,0,0-4.694,7.569,8.572,8.572,0,0,0-6.874-2.01.537.537,0,0,0-.239.042,8.6,8.6,0,0,0-1.916,16.389,13.159,13.159,0,0,0-4.985,7.615,13.205,13.205,0,0,0,12.362,2.1c4.087-1.449,6.386-4.828,7.3-9.058a14.069,14.069,0,0,0-4.98-2.677,8.555,8.555,0,0,0,1.637-2.542,14.1,14.1,0,0,0,4.527,3.334C544.508,929.271,546.577,925.742,546.128,921.425Zm-21.452-2.552a8.743,8.743,0,0,0-1.819,4.8,4.484,4.484,0,0,0-1.616.331A7.474,7.474,0,0,1,524.676,918.873Zm-2.566,10.055a7.441,7.441,0,0,1-.972-3.6,3.439,3.439,0,0,1,1.727-.529,8.526,8.526,0,0,0,1.084,3.66,8.653,8.653,0,0,0,5.777,4.166A7.489,7.489,0,0,1,522.11,928.928Zm10.412,2.672a7.484,7.484,0,0,1-5.02-13.769,7.416,7.416,0,0,1,1.095-.089,7.532,7.532,0,0,1,2,.272,7.417,7.417,0,0,1,4.513,3.519h0a7.465,7.465,0,0,1-2.59,10.066Z" fill="#5d3e3e"/>
    </g>
    <g id="グループ_1013" data-name="グループ 1013">
      <path id="パス_4099" data-name="パス 4099" d="M623.234,940.9l-2.1,3.982a35.019,35.019,0,0,1-3.079-7.234v32.72h-3.86V939.7a64.519,64.519,0,0,1-5.327,15.4l-1.71-6.637a61.725,61.725,0,0,0,6.744-21.7h-5.962V921.85h6.255V909.04h3.86v12.81H622.7V925.9a46.937,46.937,0,0,0,6.646-16.858l3.958.531c-.342,1.394-.586,2.721-1.27,5.111h21.111v4.911H630.368c-.488,1.2-1.27,3.186-2.834,6.239h23.115c0,2.057-.147,12.278-.147,14.535h2.639v4.579h-2.688c-.049,4.646-.1,6.172-.293,11.216h2.1v4.646h-2.443c-.635,6.372-1.124,9.558-5.815,9.558h-5.865l-.782-4.912,5.962.066c1.271,0,1.955-.132,2.591-4.712H627.876c-.391,2.39-.635,3.385-.977,4.779l-3.812-1.062c.684-2.787,1.954-8.229,2.932-19.579h-2.785Zm3.176-.531c.44-6.372.537-11.084.587-13.54-.978,1.726-1.711,2.92-2.444,4.049l-2.492-3.982.048-.133h-4.056v2.323a43.315,43.315,0,0,0,5.229,11.283Zm8.943,15.795c.195-1.858.635-5.574.977-11.216h-6.646c-.342,3.783-.684,7.5-1.124,11.216Zm1.27-15.795c.2-4.315.2-5.642.294-9.956h-6.3c-.147,3.385-.342,6.571-.587,9.956Zm3.274,4.579c-.341,5.907-.684,9.358-.879,11.216H646.3c.2-2.787.2-3.649.341-11.216Zm6.842-4.579c0-1.527.147-8.562.147-9.956h-6.451c0,3.252-.146,6.77-.293,9.956Z" fill="#5d3e3e"/>
      <path id="パス_4100" data-name="パス 4100" d="M695.9,932.2v5.111h-9.823c-.83,14.269-3.372,26.879-18.814,31.591l-1.759-4.712c14.611-3.584,15.882-15.663,16.469-26.879H671.415a28.948,28.948,0,0,1-7.233,11.349l-3.03-3.584c5.963-5.642,8.21-11.681,9.383-23.03l4.252.73a73.9,73.9,0,0,1-1.809,9.424Z" fill="#5d3e3e"/>
      <path id="パス_4101" data-name="パス 4101" d="M749.8,942.955H713.048v4.181H748.38c-.1,3.982-.392,15.132-2.1,19.779a5.13,5.13,0,0,1-4.74,3.583h-6.255l-.734-5.309,5.669.066c2,0,3.763,0,3.959-13.8H721.258v9.491h8.307v-7.035h3.86V965.52H709.187v3.186h-3.91v-14.8h3.91v7.035h8.259V951.45h-8.357V913.686h14.172a29.11,29.11,0,0,0,1.173-4.845l4.349.266c-.342,1.459-.928,3.451-1.319,4.579h16.761v21.106H713.048v3.915H749.8Zm-9.53-25.021H713.048v4.513h27.219Zm0,8.164H713.048v4.645h27.219Z" fill="#5d3e3e"/>
      <path id="パス_4102" data-name="パス 4102" d="M789.328,968.972a151.888,151.888,0,0,0-20.183-18.915c-6.939-5.509-8.894-7.1-8.894-10.752,0-2.92,1.417-4.845,5.522-9.225,12.852-13.672,14.27-15.2,17.935-20.376l4.4,3.85c-5.718,7.3-7.037,8.561-18.717,20.109a28.174,28.174,0,0,0-3.274,3.518,2.8,2.8,0,0,0-.635,1.725c0,1.128,0,1.594,3.568,4.182a193.334,193.334,0,0,1,24.043,21.039Z" fill="#5d3e3e"/>
      <path id="パス_4103" data-name="パス 4103" d="M811.169,920.788c-1.221,6.3-1.417,8.495-1.466,18.848a25.332,25.332,0,0,1,17.983-8.03c8.015,0,13.293,6.57,13.293,16.327,0,19.778-17.2,19.778-23.262,19.778a51.9,51.9,0,0,1-11.532-1.2l-.2-5.641a46.514,46.514,0,0,0,11.777,1.328c7.868,0,12.462-1,16.029-5.576a14.634,14.634,0,0,0,2.639-8.694c0-6.239-3.421-10.885-9.383-10.885a21.116,21.116,0,0,0-17.153,9.358,11.969,11.969,0,0,0-.146,1.328L805.4,947.6c.048-2.257.1-12.61.146-14.137a72.038,72.038,0,0,1,1.319-13.606Zm22.137-.067c-4.251-2.124-8.552-3.849-20.378-4.513l.733-5.642c10.067.465,15.54,1.992,20.672,4.248Z" fill="#5d3e3e"/>
      <path id="パス_4104" data-name="パス 4104" d="M850.9,961.87c1.465-3.982,4.5-12.211,4.74-30.331l4.154.531c.146,11.35-2.346,26.216-4.642,32.521Zm29.419-37.764c-5.913,1.394-7.868,5.907-7.868,9.358,0,2.588.977,4.513,2.639,7.1,2.736,4.115,5.326,8.03,5.326,15,0,10.62-6.793,12.146-9.285,12.146a19.459,19.459,0,0,1-10.116-3.186l.831-5.575c4.545,2.456,6.646,3.053,8.748,3.053,1.613,0,5.18-.332,5.18-7.1,0-4.313-1.466-7.366-3.763-10.884-1.613-2.456-3.616-5.575-3.616-10.42a13.415,13.415,0,0,1,7.476-12.477c-4.74-3.12-10.6-4.381-16.028-4.779l1.026-5.243c8.063.464,16.127,3.186,21.16,7.234Zm5.62-1.792a51.291,51.291,0,0,0-3.324-9.823l3.079-1.791a46.981,46.981,0,0,1,3.47,9.69Zm3.518,41.614a127.443,127.443,0,0,0-5.082-32.189l4.007-1.594c3.225,10.222,4.691,19.579,5.864,32.522Zm2.541-44.136a43.757,43.757,0,0,0-3.47-9.557l3.03-1.726a37.528,37.528,0,0,1,3.665,9.358Z" fill="#5d3e3e"/>
    </g>
  </g>
</svg>
