<svg xmlns="http://www.w3.org/2000/svg" width="24.586" height="22.508" viewBox="0 0 24.586 22.508">
  <g id="グループ_1044" data-name="グループ 1044" transform="translate(-2857.046 -1164.578)">
    <g id="グループ_312" data-name="グループ 312">
      <circle id="楕円形_35" data-name="楕円形 35" cx="1.583" cy="1.583" r="1.583" transform="translate(2860.484 1183.919)" fill="#fff"/>
      <circle id="楕円形_36" data-name="楕円形 36" cx="1.583" cy="1.583" r="1.583" transform="translate(2869.908 1183.919)" fill="#fff"/>
      <path id="パス_1928" data-name="パス 1928" d="M2881.621,1165.07a.6.6,0,0,0-.709-.481l-4.464.858a.609.609,0,0,0-.479.471l-.553,2.641h-17.765a.605.605,0,0,0-.591.737l2.247,10.072a.606.606,0,0,0,.591.474h13.153l-.391,1.867h-12.017a.606.606,0,1,0,0,1.211h12.509a.606.606,0,0,0,.593-.481l3.327-15.878,4.069-.782A.606.606,0,0,0,2881.621,1165.07Z" fill="#fff"/>
    </g>
  </g>
</svg>
