<svg xmlns="http://www.w3.org/2000/svg" width="53.938" height="50" viewBox="0 0 53.938 50">
  <g id="グループ_426" data-name="グループ 426" transform="translate(-2731.589 -348.57)">
    <path id="パス_2900" data-name="パス 2900" d="M2757.8,377.641a.848.848,0,1,1-.848-.853A.849.849,0,0,1,2757.8,377.641Z" fill="#5d3e3e"/>
    <path id="パス_2901" data-name="パス 2901" d="M2757.8,375.449a.848.848,0,1,1-.848-.853A.85.85,0,0,1,2757.8,375.449Z" fill="#5d3e3e"/>
    <path id="パス_2902" data-name="パス 2902" d="M2759.657,376.735a.853.853,0,1,1-.857-.848A.855.855,0,0,1,2759.657,376.735Z" fill="#5d3e3e"/>
    <path id="パス_2903" data-name="パス 2903" d="M2759.587,378.858a.85.85,0,1,1-.848-.853A.85.85,0,0,1,2759.587,378.858Z" fill="#5d3e3e"/>
    <path id="パス_2904" data-name="パス 2904" d="M2756.075,376.514a.848.848,0,1,1-.848-.856A.846.846,0,0,1,2756.075,376.514Z" fill="#5d3e3e"/>
    <path id="パス_2905" data-name="パス 2905" d="M2775.952,378.837a15.834,15.834,0,0,0-6.2-2.067,11.989,11.989,0,0,0-.569-3.044,11.844,11.844,0,0,0-.606-1.483,15.776,15.776,0,0,0,3.717-5.854,19.456,19.456,0,0,0-2.4-17.819,19.445,19.445,0,0,0-13.35,12.042,16.173,16.173,0,0,0-.993,5.016,16.374,16.374,0,0,0-1.973.525l-.006-.01-.176.071h0c-.046.015-.093.032-.138.05l-.488.2.011.016a12.029,12.029,0,0,0-7.058,11.8,15.948,15.948,0,0,0-4.934,3.117c-4.638,4.253-6.433,10.7-6.052,16.926,6.253.824,12.747-.315,17.385-4.564a15.972,15.972,0,0,0,3.45-4.49,12.133,12.133,0,0,0,2.08.186l.085,0,.085,0a11.975,11.975,0,0,0,4.532-.886,15.744,15.744,0,0,0,5.219,4.8,19.419,19.419,0,0,0,17.959.689A19.43,19.43,0,0,0,2775.952,378.837Zm-16.538.926c-.058.043-.109.092-.167.135a.842.842,0,0,0-.447-.131.855.855,0,0,0-.848.848.838.838,0,0,0,.078.351c-.1.1-.2.189-.3.29-.236-.252-.485-.493-.743-.725a.848.848,0,1,0-.956-.842c0,.024.005.045.007.068-.24-.174-.489-.33-.74-.483a.847.847,0,1,0-.754-1.514,11.891,11.891,0,0,0,.467-1.19h0a11.529,11.529,0,0,0,.328-1.276.852.852,0,0,0,.733-.835,11.516,11.516,0,0,0,1.66.13c.074,0,.146-.009.22-.01a.236.236,0,0,0,0,.026.853.853,0,0,0,1.705,0,.906.906,0,0,0-.017-.166c.108-.016.22-.024.328-.043.026.2.07.4.106.6a.847.847,0,0,0,.313,1.319c.025.084.042.169.069.253.035.109.083.213.122.321a.844.844,0,1,0,.639,1.471c.046.088.084.18.131.267A11.8,11.8,0,0,0,2759.414,379.763Zm-5.289-1.142v.012l-.006,0Zm5.765-5.044a12.013,12.013,0,0,1-2.155.2,10.886,10.886,0,0,1-2.141-.205c.017-.31.017-.629.006-.951a11.967,11.967,0,0,0-.529-3.3,10.187,10.187,0,0,0-1.038-2.469,12.793,12.793,0,0,1,3.936-.675,11.2,11.2,0,0,1,3.5.668l.752.308c.318.139.622.3.923.463.095.053.191.105.284.161s.165.107.248.159a14.24,14.24,0,0,1,2.159,1.761c.087.09.173.181.258.274a10.347,10.347,0,0,1-5.392,3.423Zm-12.842.4a11.214,11.214,0,0,1,6.194-6.824,11.278,11.278,0,0,1,1.216,3.021,13.245,13.245,0,0,1,.285,1.739,11.22,11.22,0,0,1-.5,4.408h0a11.222,11.222,0,0,1-.876,1.989,12.09,12.09,0,0,0-6.853-.531A11.219,11.219,0,0,1,2747.048,373.976Zm6.656,5.358a10.871,10.871,0,0,1,1.871,1.084h0a10.956,10.956,0,0,1,1.62,1.455,12.094,12.094,0,0,0-2.618,6.331,10.757,10.757,0,0,1-6.066-4.386l-.44-.688a11.4,11.4,0,0,1-1.463-4.55,11.309,11.309,0,0,1,6.32.441Zm6.393,9.044a10.736,10.736,0,0,1-4.728,0,11.281,11.281,0,0,1,2.364-5.863l.537-.643a10.5,10.5,0,0,1,3.495-2.54,12.019,12.019,0,0,0,5.19,4.484,10.753,10.753,0,0,1-6.067,4.386Zm8.759-9.8a11.4,11.4,0,0,1-1.462,4.549,11.2,11.2,0,0,1-4.854-4.109l-.439-.712a10.833,10.833,0,0,1-1.332-4.083,11.115,11.115,0,0,0,5.851-3.63,11.084,11.084,0,0,1,2.329,7.181Z" fill="#5d3e3e"/>
    <path id="パス_2906" data-name="パス 2906" d="M2750.216,361.19a4.73,4.73,0,1,0-8.476-1.935,6.114,6.114,0,0,0-4.9-1.433.393.393,0,0,0-.171.03,6.134,6.134,0,0,0-1.366,11.684,9.386,9.386,0,0,0-3.554,5.429,9.416,9.416,0,0,0,8.814,1.5c2.913-1.033,4.552-3.442,5.2-6.458a10.037,10.037,0,0,0-3.551-1.908,6.087,6.087,0,0,0,1.167-1.812,10.055,10.055,0,0,0,3.227,2.376C2749.061,366.783,2750.536,364.267,2750.216,361.19Zm-15.294-1.82a6.232,6.232,0,0,0-1.3,3.42,3.2,3.2,0,0,0-1.153.236A5.332,5.332,0,0,1,2734.922,359.37Zm-1.829,7.168a5.3,5.3,0,0,1-.693-2.57,2.445,2.445,0,0,1,1.231-.377,6.073,6.073,0,0,0,.773,2.609,6.167,6.167,0,0,0,4.119,2.97A5.338,5.338,0,0,1,2733.093,366.538Zm7.423,1.9a5.336,5.336,0,0,1-3.579-9.816,5.23,5.23,0,0,1,.781-.064,5.356,5.356,0,0,1,1.426.2,5.281,5.281,0,0,1,3.217,2.508h0a5.322,5.322,0,0,1-1.846,7.176Z" fill="#5d3e3e"/>
  </g>
</svg>
